# xmcd
#
# Track frame offsets: 
#        150
#        21875
#        42870
#        66637
#        89417
#        111025
#        131815
#        150032
#        169065
#        193282
#        211257
#        233622
#
# Disc length: 3339 seconds
#
# Revision: 0
# Processed by: cddbd v1.5.2PL0 Copyright (c) Steve Scherf et al.
# Submitted via: ExactAudioCopy v0.99pb4
#
DISCID=9f0d090c
DTITLE=Hayao Miyazaki - Hayao Miyazaki on Bossa
DYEAR=2008
DGENRE=Soundtrack
TTITLE0=Fire Treasure, from ¡§Lupin The 3rd ¡V Castle Of Cagliostro¡¨
TTITLE1=The Bird Man, from ¡§Nausicaa Of The Valley Of The Wind¡¨
TTITLE2=Carrying You, from ¡§Castle In The Sky¡¨
TTITLE3=My Neighbor Totoro, from ¡§My Neighbor Totoro¡¨
TTITLE4=Mother, from ¡§My Neighbor Totora¡¨
TTITLE5=Yasashisani Tsutsumaretanara, from ¡§Kiki's Delivery Service¡¨
TTITLE6=Le Temps Des Cerises, from ¡§Porco Rosso¡¨
TTITLE7=Princess Mononoke, from ¡§Princess Mononoke¡¨
TTITLE8=Always With Me, from ¡§Spirited Away¡¨
TTITLE9=The Merry-go-round Of Life, from ¡§Howl's Moving Castle¡¨
TTITLE10=The Promise Of The World, from ¡§Howl's Moving Castle¡¨
TTITLE11=Ponyo On The Cliff By The Sea, from ¡§Ponyo On The Cliff By T
TTITLE11=he Sea
EXTD=
EXTT0=
EXTT1=
EXTT2=
EXTT3=
EXTT4=
EXTT5=
EXTT6=
EXTT7=
EXTT8=
EXTT9=
EXTT10=
EXTT11=
PLAYORDER=
